<svg width="650" height="473" viewBox="0 0 650 473" fill="none" xmlns="http://www.w3.org/2000/svg">
<g opacity="0.5">
<path opacity="0.5" d="M224.728 277.885V224.406L188.456 264.049V329.966H165.088V235.495H159.146L142.227 219.684L125.215 235.495H119.371V362.985H72.6478H33.3926V432.426H281.389V277.885H224.728ZM159.146 311.782H125.313V308.327H159.146V311.782ZM159.146 304.886H125.313V301.431H159.146V304.886ZM159.146 297.988H125.313V294.539H159.146V297.988ZM159.146 291.09H125.313V287.641H159.146V291.09ZM159.146 284.199H125.313V280.744H159.146V284.199ZM159.146 277.303H125.313V273.848H159.146V277.303ZM159.146 270.405H125.313V266.956H159.146V270.405ZM159.146 263.508H125.313V260.059H159.146V263.508ZM159.146 256.61H125.313V253.161H159.146V256.61ZM159.146 249.72H125.313V246.265H159.146V249.72ZM159.146 242.823H125.313V239.374H159.146V242.823ZM220.127 410.811H216.615V241.095L220.127 237.246V410.811Z" fill="white"/>
<path opacity="0.43" d="M480.859 277.885V224.406L444.587 264.049V329.966H421.219V235.495H415.277L398.357 219.684L381.346 235.495H375.502V362.985H328.78H289.523V432.426H537.52V277.885H480.859ZM415.277 311.782H381.444V308.327H415.277V311.782ZM415.277 304.886H381.444V301.431H415.277V304.886ZM415.277 297.988H381.444V294.539H415.277V297.988ZM415.277 291.09H381.444V287.641H415.277V291.09ZM415.277 284.199H381.444V280.744H415.277V284.199ZM415.277 277.303H381.444V273.848H415.277V277.303ZM415.277 270.405H381.444V266.956H415.277V270.405ZM415.277 263.508H381.444V260.059H415.277V263.508ZM415.277 256.61H381.444V253.161H415.277V256.61ZM415.277 249.72H381.444V246.265H415.277V249.72ZM415.277 242.823H381.444V239.374H415.277V242.823ZM476.257 410.811H472.746V241.095L476.257 237.246V410.811Z" fill="#DDD6FF"/>
<path d="M388.295 367.724V246.853H382.848V234.623H340.715V246.853H335.301V398.807H295.76V329.991H238.178V420.292H210.359V258.541H153.637V382.814H146.981V308.839H136.721L108.118 293.732V308.839H101.861V400.201H87.9731V276.476H73.9278V233.071H72.0048V276.476H57.9595V432.693H423.78V367.724H388.295ZM84.5879 355.977H61.4147V353.288H84.5879V355.977ZM84.5879 349.754H61.4147V347.065H84.5879V349.754ZM84.5879 343.524H61.4147V340.835H84.5879V343.524ZM84.5879 337.302H61.4147V334.613H84.5879V337.302ZM84.5879 331.08H61.4147V328.391H84.5879V331.08ZM84.5879 324.85H61.4147V322.161H84.5879V324.85ZM84.5879 318.627H61.4147V315.938H84.5879V318.627ZM84.5879 312.405H61.4147V309.716H84.5879V312.405ZM84.5879 306.175H61.4147V303.486H84.5879V306.175ZM84.5879 299.953H61.4147V297.264H84.5879V299.953ZM84.5879 293.732H61.4147V291.043H84.5879V293.732ZM84.5879 287.5H61.4147V284.811H84.5879V287.5ZM84.5879 281.278H61.4147V278.589H84.5879V281.278ZM165.854 318.332H158.953V311.44H165.854V318.332ZM165.854 306.837H158.953V299.936H165.854V306.837ZM165.854 295.333H158.953V288.441H165.854V295.333ZM165.854 283.837H158.953V276.935H165.854V283.837ZM165.854 272.332H158.953V265.431H165.854V272.332ZM178.961 318.332H172.069V311.44H178.961V318.332ZM178.961 306.837H172.069V299.936H178.961V306.837ZM178.961 295.333H172.069V288.441H178.961V295.333ZM178.961 283.837H172.069V276.935H178.961V283.837ZM178.961 272.332H172.069V265.431H178.961V272.332ZM192.073 318.332H185.172V311.44H192.073V318.332ZM192.073 306.837H185.172V299.936H192.073V306.837ZM192.073 295.333H185.172V288.441H192.073V295.333ZM192.073 283.837H185.172V276.935H192.073V283.837ZM192.073 272.332H185.172V265.431H192.073V272.332ZM205.18 318.332H198.288V311.44H205.18V318.332ZM205.18 306.837H198.288V299.936H205.18V306.837ZM205.18 295.333H198.288V288.441H205.18V295.333ZM205.18 283.837H198.288V276.935H205.18V283.837ZM393.725 424.609H386.554V417.438H393.725V424.609ZM393.725 410.25H386.554V403.08H393.725V410.25ZM393.725 395.892H386.554V388.722H393.725V395.892ZM393.725 381.534H386.554V374.363H393.725V381.534ZM407.03 424.609H399.86V417.438H407.03V424.609ZM407.03 410.25H399.86V403.08H407.03V410.25ZM407.03 395.892H399.86V388.722H407.03V395.892ZM407.03 381.534H399.86V374.363H407.03V381.534ZM420.334 424.609H413.155V417.438H420.334V424.609ZM420.334 410.25H413.155V403.08H420.334V410.25ZM420.334 395.892H413.155V388.722H420.334V395.892ZM420.334 381.534H413.155V374.363H420.334V381.534Z" fill="#DDD6FF"/>
<path d="M556.553 354.882V246.855H551.106V234.625H508.973V246.855H503.559V398.809H464.017V329.993H406.436V420.294H378.617V258.541H321.897V382.814H315.24V308.839H304.98L276.377 293.732V308.839H270.12V400.201H256.232V276.476H242.187V233.071H240.264V276.476H226.219V432.693H592.04V354.882H556.553ZM252.846 355.977H229.672V353.288H252.846V355.977ZM252.846 349.754H229.672V347.065H252.846V349.754ZM252.846 343.524H229.672V340.835H252.846V343.524ZM252.846 337.302H229.672V334.613H252.846V337.302ZM252.846 331.08H229.672V328.391H252.846V331.08ZM252.846 324.85H229.672V322.161H252.846V324.85ZM252.846 318.627H229.672V315.938H252.846V318.627ZM252.846 312.405H229.672V309.716H252.846V312.405ZM252.846 306.175H229.672V303.486H252.846V306.175ZM252.846 299.953H229.672V297.264H252.846V299.953ZM252.846 293.732H229.672V291.043H252.846V293.732ZM252.846 287.5H229.672V284.811H252.846V287.5ZM252.846 281.278H229.672V278.589H252.846V281.278ZM334.114 318.332H327.213V311.44H334.114V318.332ZM334.114 306.837H327.213V299.936H334.114V306.837ZM334.114 295.333H327.213V288.441H334.114V295.333ZM334.114 283.837H327.213V276.935H334.114V283.837ZM334.114 272.332H327.213V265.431H334.114V272.332ZM347.219 318.332H340.327V311.44H347.219V318.332ZM347.219 306.837H340.327V299.936H347.219V306.837ZM347.219 295.333H340.327V288.441H347.219V295.333ZM347.219 283.837H340.327V276.935H347.219V283.837ZM347.219 272.332H340.327V265.431H347.219V272.332ZM360.333 318.332H353.432V311.44H360.333V318.332ZM360.333 306.837H353.432V299.936H360.333V306.837ZM360.333 295.333H353.432V288.441H360.333V295.333ZM360.333 283.837H353.432V276.935H360.333V283.837ZM360.333 272.332H353.432V265.431H360.333V272.332ZM373.438 318.332H366.546V311.44H373.438V318.332ZM373.438 306.837H366.546V299.936H373.438V306.837ZM373.438 295.333H366.546V288.441H373.438V295.333ZM373.438 283.837H366.546V276.935H373.438V283.837ZM565.62 405.574H559.429V399.385H565.62V405.574ZM565.62 393.18H559.429V386.988H565.62V393.18ZM565.62 380.783H559.429V374.594H565.62V380.783ZM565.62 368.387H559.429V362.197H565.62V368.387ZM577.107 405.574H570.917V399.385H577.107V405.574ZM577.107 393.18H570.917V386.988H577.107V393.18ZM577.107 380.783H570.917V374.594H577.107V380.783ZM577.107 368.387H570.917V362.197H577.107V368.387ZM588.594 405.574H582.396V399.385H588.594V405.574ZM588.594 393.18H582.396V386.988H588.594V393.18ZM588.594 380.783H582.396V374.594H588.594V380.783ZM588.594 368.387H582.396V362.197H588.594V368.387Z" fill="white"/>
<path opacity="0.5" d="M616.606 377.949H592.04V432.693H616.606V377.949Z" fill="white"/>
<path d="M649.267 433.1H0.731846C0.326993 433.1 0 432.773 0 432.368C0 431.963 0.326993 431.636 0.731846 431.636H649.268C649.673 431.636 650 431.963 650 432.368C649.998 432.773 649.672 433.1 649.267 433.1Z" fill="#BFB8F4"/>
</g>
<path d="M167.311 387.284C164.725 383.133 162.069 378.781 161.64 373.909C161.243 369.395 160.507 364.412 161.189 359.932C161.871 355.449 161.564 350.855 160.574 346.43C157.467 332.558 151.642 334.096 149.524 335.158C147.444 336.201 146.465 338.478 146.365 342.145C146.286 345.094 148.416 358.878 143.911 356.863C138.696 354.529 138.779 340.122 137.932 335.328C136.663 328.156 133.673 320.504 128.145 315.551C125.422 313.111 121.426 311.335 118.155 312.969C116.196 313.947 114.942 315.96 114.249 318.037C112.166 324.294 114.374 330.767 116.864 336.547C117.904 338.964 126.317 350.114 119.427 349.074C117.781 348.826 103.996 338.183 102.734 349.323C102.29 353.246 106.702 357.235 113.696 362.213C118.064 365.323 134.202 373.404 133.424 377.745C132.645 382.087 123.684 375.226 124.797 383.29C125.422 387.808 131.382 391.021 135.423 392.699C137.346 393.496 139.422 393.908 141.287 394.83C143.501 395.923 146.219 398.589 144.556 401.218C143.828 402.365 142.41 402.946 141.722 404.117C141.022 405.307 141.258 406.875 141.994 408.042C142.731 409.21 143.889 410.042 145.069 410.755C152.642 415.327 162.094 416.007 170.757 414.224C179.421 412.44 187.442 408.388 195.103 403.966" fill="#D6D4FF"/>
<g opacity="0.25">
<path d="M122.489 320.479C122.489 320.479 131.952 367.658 160.84 396.903" stroke="white" stroke-width="0.6983" stroke-miterlimit="10" stroke-linecap="round" stroke-linejoin="round"/>
<path d="M109.638 351.721C109.638 351.721 125.745 364.102 138.932 365.805" stroke="white" stroke-width="0.6983" stroke-miterlimit="10" stroke-linecap="round" stroke-linejoin="round"/>
<path d="M151.992 341.03C152.885 348.453 153.695 369.183 146.738 379.24" stroke="white" stroke-width="0.6983" stroke-miterlimit="10" stroke-linecap="round" stroke-linejoin="round"/>
<path d="M130.716 384.791C130.716 384.791 137.048 390.184 156.529 392.247" stroke="white" stroke-width="0.6983" stroke-miterlimit="10" stroke-linecap="round" stroke-linejoin="round"/>
<path d="M145.55 405.391C145.55 405.391 155.612 407.085 164.513 401.764" stroke="white" stroke-width="0.6983" stroke-miterlimit="10" stroke-linecap="round" stroke-linejoin="round"/>
</g>
<path d="M238.73 356.389C236.144 352.238 233.488 347.886 233.059 343.014C232.662 338.499 231.926 333.517 232.608 329.037C233.29 324.554 232.983 319.96 231.993 315.535C228.886 301.662 223.061 303.201 220.943 304.263C218.863 305.306 217.884 307.584 217.784 311.25C217.705 314.199 219.835 327.984 215.33 325.968C210.115 323.634 210.198 309.227 209.351 304.433C208.081 297.26 205.092 289.609 199.564 284.656C196.841 282.216 192.845 280.44 189.573 282.074C187.615 283.052 186.361 285.065 185.668 287.142C183.585 293.399 185.793 299.872 188.283 305.653C189.323 308.07 197.736 319.221 190.846 318.181C189.2 317.931 175.414 307.29 174.153 318.428C173.709 322.35 178.121 326.34 185.115 331.318C189.483 334.428 205.621 342.509 204.843 346.85C204.064 351.192 195.103 344.331 196.216 352.395C196.841 356.913 202.801 360.126 206.842 361.803C208.765 362.601 210.841 363.013 212.706 363.935C214.92 365.028 217.638 367.694 215.975 370.323C215.247 371.47 213.829 372.051 213.141 373.222C212.441 374.412 212.677 375.98 213.413 377.147C214.15 378.314 215.308 379.147 216.488 379.86C224.061 384.432 233.513 385.112 242.176 383.329C250.84 381.546 258.861 377.493 266.522 373.071" fill="#D6D4FF"/>
<g opacity="0.25">
<path d="M193.906 289.584C193.906 289.584 203.369 336.763 232.257 366.008" stroke="white" stroke-width="0.6983" stroke-miterlimit="10" stroke-linecap="round" stroke-linejoin="round"/>
<path d="M181.056 320.826C181.056 320.826 197.163 333.207 210.35 334.91" stroke="white" stroke-width="0.6983" stroke-miterlimit="10" stroke-linecap="round" stroke-linejoin="round"/>
<path d="M223.409 310.135C224.303 317.558 225.113 338.288 218.155 348.345" stroke="white" stroke-width="0.6983" stroke-miterlimit="10" stroke-linecap="round" stroke-linejoin="round"/>
<path d="M202.133 353.896C202.133 353.896 208.464 359.289 227.945 361.352" stroke="white" stroke-width="0.6983" stroke-miterlimit="10" stroke-linecap="round" stroke-linejoin="round"/>
<path d="M216.969 374.496C216.969 374.496 227.031 376.19 235.932 370.869" stroke="white" stroke-width="0.6983" stroke-miterlimit="10" stroke-linecap="round" stroke-linejoin="round"/>
</g>
<path d="M171.836 385.428C170.841 379.793 160.462 344.367 142.248 353.775C131.427 359.363 133.374 379.939 150.273 395.484C146.957 392.277 143.126 388.638 138.599 387.739C136.155 387.253 133.162 388.379 131.331 390.07C129.7 391.574 129.222 393.952 129.146 396.168C128.872 404.231 133.076 412.301 139.839 416.7C136.102 414.612 132.861 411.996 128.596 411.63C127.211 411.51 124.861 412.304 124.219 413.539C123.522 414.883 123.57 419.92 131.798 423.681C98.2574 417.32 96.3016 431.616 108.357 431.616C120.412 431.616 207.236 431.616 207.236 431.616" fill="#BFB8F4"/>
<path d="M482.208 385.428C483.204 379.793 493.583 344.367 511.797 353.775C522.616 359.364 520.671 379.939 503.772 395.484C507.088 392.277 510.919 388.638 515.445 387.739C517.89 387.253 520.883 388.379 522.714 390.07C524.344 391.574 524.824 393.952 524.899 396.168C525.173 404.231 520.969 412.301 514.206 416.7C517.943 414.612 521.182 411.996 525.448 411.63C526.834 411.51 529.184 412.304 529.825 413.539C530.523 414.883 530.475 419.92 522.247 423.681C555.787 417.32 557.743 431.616 545.688 431.616C533.633 431.616 466.011 431.616 466.011 431.616" fill="#BFB8F4"/>
<path d="M475.293 370.011C477.398 365.597 479.552 360.974 479.432 356.084C479.321 351.555 479.494 346.52 478.316 342.145C477.135 337.766 476.927 333.166 477.416 328.66C478.949 314.528 484.912 315.404 487.134 316.222C489.318 317.025 490.545 319.179 491.054 322.812C491.464 325.733 490.889 339.669 495.142 337.162C500.062 334.26 498.367 319.951 498.674 315.093C499.131 307.824 501.246 299.884 506.184 294.346C508.617 291.616 512.389 289.405 515.822 290.661C517.878 291.414 519.349 293.274 520.269 295.261C523.041 301.245 521.571 307.925 519.745 313.948C518.982 316.466 511.87 328.489 518.6 326.684C520.207 326.253 532.715 314.135 535.215 325.062C536.096 328.909 532.158 333.367 525.764 339.098C521.772 342.676 506.64 352.514 507.899 356.741C509.159 360.967 517.297 353.147 517.093 361.285C516.979 365.844 511.414 369.706 507.587 371.824C505.766 372.831 503.75 373.474 501.998 374.599C499.921 375.933 497.518 378.885 499.466 381.311C500.316 382.37 501.791 382.789 502.607 383.876C503.435 384.98 503.376 386.565 502.775 387.806C502.174 389.049 501.117 390.005 500.022 390.846C493.009 396.235 483.692 397.971 474.884 397.168C466.075 396.366 457.651 393.236 449.543 389.7" fill="#D6D4FF"/>
<g opacity="0.25">
<path d="M512.356 298.607C512.356 298.607 508.234 346.55 482.801 378.845" stroke="white" stroke-width="0.6983" stroke-miterlimit="10" stroke-linecap="round" stroke-linejoin="round"/>
<path d="M528.625 328.215C528.625 328.215 514.005 342.321 501.092 345.49" stroke="white" stroke-width="0.6983" stroke-miterlimit="10" stroke-linecap="round" stroke-linejoin="round"/>
<path d="M485.341 322.332C485.283 329.808 486.8 350.499 494.839 359.714" stroke="white" stroke-width="0.6983" stroke-miterlimit="10" stroke-linecap="round" stroke-linejoin="round"/>
<path d="M511.383 363.437C511.383 363.437 505.695 369.505 486.569 373.734" stroke="white" stroke-width="0.6983" stroke-miterlimit="10" stroke-linecap="round" stroke-linejoin="round"/>
<path d="M498.946 385.567C498.946 385.567 489.137 388.378 479.697 384.086" stroke="white" stroke-width="0.6983" stroke-miterlimit="10" stroke-linecap="round" stroke-linejoin="round"/>
</g>
<path d="M222.602 408.338H214.152V431.588H222.602V408.338Z" fill="#581E96"/>
<path d="M439.933 408.338H431.482V431.588H439.933V408.338Z" fill="#581E96"/>
<path d="M228.114 346.608H164.1V431.59H228.114V346.608Z" fill="#9D74ED"/>
<path d="M228.113 334.778H161.606V348.612H228.113V334.778Z" fill="#581E96"/>
<path d="M228.113 428.583H161.606V431.588H228.113V428.583Z" fill="#581E96"/>
<path d="M213.97 375.72V402.837H177.703V375.72C177.703 366.03 185.294 358.134 194.839 357.62C195.169 357.607 195.5 357.593 195.83 357.593C196.16 357.593 196.49 357.607 196.82 357.62C201.442 357.87 205.587 359.837 208.662 362.901C211.937 366.175 213.97 370.717 213.97 375.72Z" fill="#DDD6FF"/>
<path d="M211.981 400.927H179.683V375.648C179.683 366.729 186.913 359.499 195.832 359.499C204.751 359.499 211.981 366.729 211.981 375.648V400.927Z" fill="#C3BDEF"/>
<path d="M215.021 402.839H176.644V404.852H215.021V402.839Z" fill="white"/>
<path d="M216.187 404.785H175.479V406.798H216.187V404.785Z" fill="white"/>
<path d="M216.187 406.799H175.479V408.242H216.187V406.799Z" fill="#6F3FBC"/>
<path d="M213.965 375.112H177.698V377.093H213.965V375.112Z" fill="white"/>
<path d="M196.82 357.62V402.837H194.839V357.62C195.169 357.607 195.5 357.593 195.83 357.593C196.16 357.593 196.49 357.607 196.82 357.62Z" fill="white"/>
<path d="M425.936 431.587H489.949V346.606H425.936V431.587Z" fill="#9D74ED"/>
<path d="M425.936 348.612H492.443V334.779H425.936V348.612Z" fill="#581E96"/>
<path d="M425.936 431.553H492.443V429.317H425.936V431.553Z" fill="#581E96"/>
<path d="M476.079 375.72V402.837H439.812V375.72C439.812 366.03 447.403 358.133 456.948 357.619C457.278 357.607 457.608 357.593 457.939 357.593C458.269 357.593 458.599 357.607 458.929 357.619C463.549 357.87 467.695 359.837 470.771 362.901C474.047 366.174 476.079 370.716 476.079 375.72Z" fill="#DDD6FF"/>
<path d="M474.091 400.926H441.793V375.648C441.793 366.729 449.023 359.499 457.942 359.499C466.861 359.499 474.091 366.729 474.091 375.648V400.926Z" fill="#C3BDEF"/>
<path d="M477.13 402.839H438.753V404.852H477.13V402.839Z" fill="white"/>
<path d="M478.296 404.785H437.588V406.798H478.296V404.785Z" fill="white"/>
<path d="M478.296 406.798H437.588V408.242H478.296V406.798Z" fill="#6F3FBC"/>
<path d="M476.077 375.112H439.81V377.093H476.077V375.112Z" fill="white"/>
<path d="M458.931 357.619V402.837H456.95V357.619C457.28 357.607 457.61 357.593 457.941 357.593C458.269 357.593 458.599 357.607 458.931 357.619Z" fill="white"/>
<path d="M425.934 132.875H228.112V431.588H425.934V132.875Z" fill="#854DCE"/>
<path d="M425.936 406.468H228.147V410.43H425.936V406.468Z" fill="#905DE2"/>
<path d="M433.728 312.365H220.32V329.258H433.728V312.365Z" fill="#7986CB"/>
<path d="M425.934 328.948H228.112V332.988H425.934V328.948Z" fill="#6F3FBC"/>
<path d="M433.728 110.159H220.32V132.875H433.728V110.159Z" fill="#7986CB"/>
<path d="M425.934 132.875H228.112V135.654H425.934V132.875Z" fill="#6F3FBC"/>
<path d="M433.728 218.995H220.32V225.376H433.728V218.995Z" fill="#7986CB"/>
<path d="M425.934 225.376H228.112V227.741H425.934V225.376Z" fill="#6F3FBC"/>
<path d="M433.728 113.13H220.557V115.95H433.728V113.13Z" fill="#581E96"/>
<path d="M433.728 118.772H220.557V121.592H433.728V118.772Z" fill="#581E96"/>
<path d="M433.728 124.412H220.557V127.232H433.728V124.412Z" fill="#581E96"/>
<path d="M433.728 130.053H220.557V132.873H433.728V130.053Z" fill="#581E96"/>
<path d="M284.407 340.398H240.125V394.105H284.407V340.398Z" fill="#DDD6FF"/>
<path d="M282.356 342.407H242.179V392.191H282.356V342.407Z" fill="#C3BDEF"/>
<path opacity="0.3" d="M279.125 340.398L240.125 379.398V368.532L268.247 340.398H279.125Z" fill="white"/>
<path opacity="0.3" d="M284.407 340.398V341.599L240.125 385.88V382.184L281.911 340.398H284.407Z" fill="white"/>
<path opacity="0.3" d="M284.407 357.587V368.44L258.741 394.105H247.889L284.407 357.587Z" fill="white"/>
<path opacity="0.3" d="M284.408 371.226V374.935L265.238 394.105H261.528L284.408 371.226Z" fill="white"/>
<path d="M285.761 394.103H238.775V396.646H285.761V394.103Z" fill="white"/>
<path d="M285.761 338.05H238.775V340.593H285.761V338.05Z" fill="white"/>
<path d="M263.539 394.886V339.234H260.996V394.886H263.539Z" fill="white"/>
<path d="M286.902 396.646H237.631V399.189H286.902V396.646Z" fill="white"/>
<path d="M286.902 399.208H237.631V401.391H286.902V399.208Z" fill="#6F3FBC"/>
<path d="M284.407 241.173H240.125V294.88H284.407V241.173Z" fill="#DDD6FF"/>
<path d="M282.356 243.182H242.179V292.966H282.356V243.182Z" fill="#C3BDEF"/>
<path opacity="0.3" d="M279.125 241.173L240.125 280.171V269.307L268.247 241.173H279.125Z" fill="white"/>
<path opacity="0.3" d="M284.407 241.173V242.374L240.125 286.654V282.957L281.911 241.173H284.407Z" fill="white"/>
<path opacity="0.3" d="M284.407 258.362V269.214L258.741 294.88H247.889L284.407 258.362Z" fill="white"/>
<path opacity="0.3" d="M284.408 271.999V275.71L265.238 294.88H261.528L284.408 271.999Z" fill="white"/>
<path d="M285.761 294.877H238.775V297.419H285.761V294.877Z" fill="white"/>
<path d="M285.761 238.823H238.775V241.366H285.761V238.823Z" fill="white"/>
<path d="M263.539 295.66V240.008H260.996V295.66H263.539Z" fill="white"/>
<path d="M286.902 297.421H237.631V299.964H286.902V297.421Z" fill="white"/>
<path d="M286.902 299.983H237.631V302.166H286.902V299.983Z" fill="#6F3FBC"/>
<path d="M349.182 241.173H304.9V294.88H349.182V241.173Z" fill="#DDD6FF"/>
<path d="M347.131 243.182H306.954V292.966H347.131V243.182Z" fill="#C3BDEF"/>
<path opacity="0.3" d="M343.9 241.173L304.9 280.171V269.307L333.02 241.173H343.9Z" fill="white"/>
<path opacity="0.3" d="M349.18 241.173V242.374L304.9 286.654V282.957L346.685 241.173H349.18Z" fill="white"/>
<path opacity="0.3" d="M349.18 258.362V269.214L323.516 294.88H312.663L349.18 258.362Z" fill="white"/>
<path opacity="0.3" d="M349.182 271.999V275.71L330.012 294.88H326.303L349.182 271.999Z" fill="white"/>
<path d="M350.537 294.877H303.55V297.419H350.537V294.877Z" fill="white"/>
<path d="M350.537 238.823H303.55V241.366H350.537V238.823Z" fill="white"/>
<path d="M328.312 295.661V240.009H325.77V295.661H328.312Z" fill="white"/>
<path d="M351.676 297.421H302.406V299.964H351.676V297.421Z" fill="white"/>
<path d="M351.676 299.983H302.406V302.166H351.676V299.983Z" fill="#6F3FBC"/>
<path d="M413.957 241.173H369.676V294.88H413.957V241.173Z" fill="#DDD6FF"/>
<path d="M411.905 243.182H371.728V292.966H411.905V243.182Z" fill="#C3BDEF"/>
<path opacity="0.3" d="M408.676 241.173L369.676 280.171V269.307L397.798 241.173H408.676Z" fill="white"/>
<path opacity="0.3" d="M413.957 241.173V242.374L369.676 286.654V282.957L411.461 241.173H413.957Z" fill="white"/>
<path opacity="0.3" d="M413.955 258.362V269.214L388.289 294.88H377.438L413.955 258.362Z" fill="white"/>
<path opacity="0.3" d="M413.957 271.999V275.71L394.787 294.88H391.077L413.957 271.999Z" fill="white"/>
<path d="M415.31 294.877H368.324V297.419H415.31V294.877Z" fill="white"/>
<path d="M415.31 238.823H368.324V241.366H415.31V238.823Z" fill="white"/>
<path d="M393.087 295.661V240.009H390.545V295.661H393.087Z" fill="white"/>
<path d="M416.452 297.421H367.182V299.964H416.452V297.421Z" fill="white"/>
<path d="M416.452 299.983H367.182V302.166H416.452V299.983Z" fill="#6F3FBC"/>
<path d="M284.407 149.46H240.125V203.167H284.407V149.46Z" fill="#DDD6FF"/>
<path d="M282.356 151.468H242.179V201.253H282.356V151.468Z" fill="#C3BDEF"/>
<path opacity="0.3" d="M279.125 149.46L240.125 188.459V177.594L268.247 149.46H279.125Z" fill="white"/>
<path opacity="0.3" d="M284.407 149.46V150.66L240.125 194.942V191.245L281.911 149.46H284.407Z" fill="white"/>
<path opacity="0.3" d="M284.407 166.649V177.5L258.741 203.167H247.889L284.407 166.649Z" fill="white"/>
<path opacity="0.3" d="M284.408 180.286V183.997L265.238 203.167H261.528L284.408 180.286Z" fill="white"/>
<path d="M285.761 203.165H238.775V205.708H285.761V203.165Z" fill="white"/>
<path d="M285.761 147.11H238.775V149.653H285.761V147.11Z" fill="white"/>
<path d="M263.539 203.947V148.295H260.996V203.947H263.539Z" fill="white"/>
<path d="M286.902 205.708H237.631V208.251H286.902V205.708Z" fill="white"/>
<path d="M286.902 208.269H237.631V210.453H286.902V208.269Z" fill="#6F3FBC"/>
<path d="M349.182 149.46H304.9V203.167H349.182V149.46Z" fill="#DDD6FF"/>
<path d="M347.131 151.468H306.954V201.253H347.131V151.468Z" fill="#C3BDEF"/>
<path opacity="0.3" d="M343.9 149.46L304.9 188.459V177.594L333.02 149.46H343.9Z" fill="white"/>
<path opacity="0.3" d="M349.18 149.46V150.66L304.9 194.942V191.245L346.685 149.46H349.18Z" fill="white"/>
<path opacity="0.3" d="M349.18 166.649V177.5L323.516 203.167H312.663L349.18 166.649Z" fill="white"/>
<path opacity="0.3" d="M349.182 180.286V183.997L330.012 203.167H326.303L349.182 180.286Z" fill="white"/>
<path d="M350.537 203.165H303.55V205.708H350.537V203.165Z" fill="white"/>
<path d="M350.537 147.11H303.55V149.653H350.537V147.11Z" fill="white"/>
<path d="M328.314 203.948V148.296H325.771V203.948H328.314Z" fill="white"/>
<path d="M351.676 205.708H302.406V208.251H351.676V205.708Z" fill="white"/>
<path d="M351.676 208.269H302.406V210.453H351.676V208.269Z" fill="#6F3FBC"/>
<path d="M413.957 149.46H369.676V203.167H413.957V149.46Z" fill="#DDD6FF"/>
<path d="M411.905 151.468H371.728V201.253H411.905V151.468Z" fill="#C3BDEF"/>
<path opacity="0.3" d="M408.676 149.46L369.676 188.459V177.594L397.798 149.46H408.676Z" fill="white"/>
<path opacity="0.3" d="M413.957 149.46V150.66L369.676 194.942V191.245L411.461 149.46H413.957Z" fill="white"/>
<path opacity="0.3" d="M413.955 166.649V177.5L388.289 203.167H377.438L413.955 166.649Z" fill="white"/>
<path opacity="0.3" d="M413.957 180.286V183.997L394.787 203.167H391.077L413.957 180.286Z" fill="white"/>
<path d="M415.31 203.165H368.324V205.708H415.31V203.165Z" fill="white"/>
<path d="M415.31 147.11H368.324V149.653H415.31V147.11Z" fill="white"/>
<path d="M393.087 203.948V148.296H390.545V203.948H393.087Z" fill="white"/>
<path d="M416.452 205.708H367.182V208.251H416.452V205.708Z" fill="white"/>
<path d="M416.452 208.269H367.182V210.453H416.452V208.269Z" fill="#6F3FBC"/>
<path d="M413.94 340.398H369.659V394.105H413.94V340.398Z" fill="#DDD6FF"/>
<path d="M411.889 342.407H371.712V392.191H411.889V342.407Z" fill="#C3BDEF"/>
<path opacity="0.3" d="M408.659 340.398L369.659 379.398V368.532L397.78 340.398H408.659Z" fill="white"/>
<path opacity="0.3" d="M413.94 340.398V341.599L369.659 385.88V382.184L411.444 340.398H413.94Z" fill="white"/>
<path opacity="0.3" d="M413.94 357.587V368.44L388.274 394.105H377.422L413.94 357.587Z" fill="white"/>
<path opacity="0.3" d="M413.941 371.226V374.935L394.772 394.105H391.061L413.941 371.226Z" fill="white"/>
<path d="M415.294 394.103H368.307V396.646H415.294V394.103Z" fill="white"/>
<path d="M415.294 338.05H368.307V340.593H415.294V338.05Z" fill="white"/>
<path d="M393.073 394.886V339.234H390.53V394.886H393.073Z" fill="white"/>
<path d="M416.435 396.646H367.165V399.189H416.435V396.646Z" fill="white"/>
<path d="M416.435 399.208H367.165V401.391H416.435V399.208Z" fill="#6F3FBC"/>
<path d="M236.67 230.354H228.112V236.624H236.67V230.354Z" fill="#5828A1"/>
<path d="M234.277 239.633H228.112V245.903H234.277V239.633Z" fill="#5828A1"/>
<path d="M236.67 248.912H228.112V255.182H236.67V248.912Z" fill="#5828A1"/>
<path d="M234.277 258.191H228.112V264.461H234.277V258.191Z" fill="#5828A1"/>
<path d="M236.67 267.47H228.112V273.74H236.67V267.47Z" fill="#5828A1"/>
<path d="M234.277 276.747H228.112V283.018H234.277V276.747Z" fill="#5828A1"/>
<path d="M236.67 286.026H228.112V292.297H236.67V286.026Z" fill="#5828A1"/>
<path d="M234.277 295.305H228.112V301.576H234.277V295.305Z" fill="#5828A1"/>
<path d="M236.67 304.584H228.112V310.854H236.67V304.584Z" fill="#5828A1"/>
<path d="M417.378 236.626H425.936V230.355H417.378V236.626Z" fill="#5828A1"/>
<path d="M419.769 245.904H425.934V239.634H419.769V245.904Z" fill="#5828A1"/>
<path d="M417.378 255.183H425.936V248.912H417.378V255.183Z" fill="#5828A1"/>
<path d="M419.769 264.461H425.934V258.191H419.769V264.461Z" fill="#5828A1"/>
<path d="M417.378 273.74H425.936V267.469H417.378V273.74Z" fill="#5828A1"/>
<path d="M419.769 283.02H425.934V276.749H419.769V283.02Z" fill="#5828A1"/>
<path d="M417.378 292.298H425.936V286.028H417.378V292.298Z" fill="#5828A1"/>
<path d="M419.769 301.577H425.934V295.306H419.769V301.577Z" fill="#5828A1"/>
<path d="M417.378 310.855H425.936V304.585H417.378V310.855Z" fill="#5828A1"/>
<path d="M236.67 136.699H228.112V142.969H236.67V136.699Z" fill="#5828A1"/>
<path d="M234.277 145.978H228.112V152.248H234.277V145.978Z" fill="#5828A1"/>
<path d="M236.67 155.257H228.112V161.527H236.67V155.257Z" fill="#5828A1"/>
<path d="M234.277 164.536H228.112V170.806H234.277V164.536Z" fill="#5828A1"/>
<path d="M236.67 173.815H228.112V180.085H236.67V173.815Z" fill="#5828A1"/>
<path d="M234.277 183.093H228.112V189.364H234.277V183.093Z" fill="#5828A1"/>
<path d="M236.67 192.372H228.112V198.643H236.67V192.372Z" fill="#5828A1"/>
<path d="M234.277 201.65H228.112V207.92H234.277V201.65Z" fill="#5828A1"/>
<path d="M236.67 210.929H228.112V217.199H236.67V210.929Z" fill="#5828A1"/>
<path d="M417.378 142.971H425.936V136.701H417.378V142.971Z" fill="#5828A1"/>
<path d="M419.769 152.25H425.934V145.979H419.769V152.25Z" fill="#5828A1"/>
<path d="M417.378 161.529H425.936V155.258H417.378V161.529Z" fill="#5828A1"/>
<path d="M419.769 170.807H425.934V164.536H419.769V170.807Z" fill="#5828A1"/>
<path d="M417.378 180.085H425.936V173.815H417.378V180.085Z" fill="#5828A1"/>
<path d="M419.769 189.364H425.934V183.093H419.769V189.364Z" fill="#5828A1"/>
<path d="M417.378 198.643H425.936V192.372H417.378V198.643Z" fill="#5828A1"/>
<path d="M419.769 207.922H425.934V201.652H419.769V207.922Z" fill="#5828A1"/>
<path d="M417.378 217.201H425.936V210.93H417.378V217.201Z" fill="#5828A1"/>
<path d="M367.905 423.869H286.144V431.588H367.905V423.869Z" fill="white"/>
<path d="M362.399 416.15H291.648V423.869H362.399V416.15Z" fill="white"/>
<path d="M362.399 422.147H291.648V423.869H362.399V422.147Z" fill="#DDD6FF"/>
<path d="M327.025 335.242C310.627 335.242 297.279 348.59 297.279 364.986V416.146H299.92V364.986C299.92 350.015 312.053 337.881 327.025 337.881C341.996 337.881 354.13 350.015 354.13 364.986V416.146H356.77V364.986C356.769 348.59 343.421 335.242 327.025 335.242Z" fill="white"/>
<path d="M354.131 364.986V416.146H299.922V364.986C299.922 364.102 299.961 363.217 300.055 362.346C301.375 348.615 312.94 337.881 327.027 337.881C328.229 337.881 329.417 337.961 330.579 338.132C334.302 338.595 337.787 339.848 340.876 341.684C341.946 342.318 342.975 343.031 343.939 343.823C344.732 344.431 345.484 345.103 346.197 345.817L346.277 345.896C350.317 349.976 353.077 355.335 353.868 361.316C353.92 361.66 353.959 362.003 354 362.346C354.09 363.217 354.131 364.102 354.131 364.986Z" fill="#DDD6FF"/>
<g opacity="0.3">
<path d="M340.874 341.684L299.92 382.624V368.787L330.577 338.13C334.3 338.594 337.785 339.85 340.874 341.684Z" fill="white"/>
<path d="M346.275 345.896L299.92 392.236V387.853L343.937 343.823C344.73 344.431 345.482 345.103 346.195 345.816L346.275 345.896Z" fill="white"/>
<path d="M354.13 364.986V374.902L312.873 416.146H299.92V415.261L353.866 361.316C354.051 362.518 354.13 363.745 354.13 364.986Z" fill="white"/>
<path d="M354.131 380.117V384.513L322.497 416.146H318.1L354.131 380.117Z" fill="white"/>
</g>
<path d="M354.131 364.986V365.119H299.922V364.986C299.922 364.102 299.961 363.217 300.055 362.345H354C354.09 363.217 354.131 364.102 354.131 364.986Z" fill="white"/>
<path d="M328.416 416.151V363.732H325.633V416.151H328.416Z" fill="white"/>
<path d="M361.404 312.075C361.404 311.209 360.701 310.507 359.836 310.507H294.237C293.371 310.507 292.669 311.209 292.669 312.075V313.5C292.652 313.5 292.636 313.497 292.618 313.497C288.578 313.497 285.304 316.772 285.304 320.811C285.304 324.85 288.578 328.125 292.618 328.125C292.635 328.125 292.65 328.121 292.669 328.121V329.546C292.669 330.412 293.371 331.114 294.237 331.114H359.836C360.701 331.114 361.404 330.412 361.404 329.546C361.404 328.772 361.975 328.142 362.737 328.002C366.139 327.376 368.716 324.394 368.716 320.809C368.716 317.226 366.139 314.244 362.737 313.617C361.975 313.48 361.404 312.849 361.404 312.075Z" stroke="#EAA221" stroke-miterlimit="10"/>
<path d="M361.404 312.075C361.404 311.209 360.701 310.507 359.836 310.507H294.237C293.371 310.507 292.669 311.209 292.669 312.075V313.5C292.652 313.5 292.636 313.497 292.618 313.497C288.578 313.497 285.304 316.772 285.304 320.811C285.304 324.85 288.578 328.125 292.618 328.125C292.635 328.125 292.65 328.121 292.669 328.121V329.546C292.669 330.412 293.371 331.114 294.237 331.114H359.836C360.701 331.114 361.404 330.412 361.404 329.546C361.404 328.772 361.975 328.142 362.737 328.002C366.139 327.376 368.716 324.394 368.716 320.809C368.716 317.226 366.139 314.244 362.737 313.617C361.975 313.48 361.404 312.849 361.404 312.075Z" fill="#F8D846"/>
<path d="M305.653 320.12L311.277 320.138C311.254 318.734 311.219 317.349 311.173 315.98C310.748 315.899 310.236 315.761 309.638 315.566L309.69 314.962H314.002C314.198 315.33 314.296 315.675 314.296 315.997C313.721 316.043 313.261 316.066 312.916 316.066L312.726 325.865L314.175 326.003C314.175 326.325 314.077 326.67 313.882 327.038H309.914L309.862 326.434C310.403 326.25 310.932 326.112 311.449 326.02L311.311 321.224H305.618C305.595 323.295 305.584 324.842 305.584 325.865L307.033 326.003C307.033 326.325 306.935 326.67 306.74 327.038H302.772L302.72 326.434C303.26 326.25 303.789 326.112 304.307 326.02C304.192 321.558 304.1 318.211 304.031 315.98C303.605 315.899 303.094 315.761 302.496 315.566L302.547 314.962H306.86C307.056 315.33 307.154 315.675 307.154 315.997C306.579 316.043 306.118 316.066 305.773 316.066C305.739 316.94 305.699 318.292 305.653 320.12Z" fill="#581E96"/>
<path d="M319.422 326.21C320.388 326.21 321.038 325.911 321.371 325.313C321.716 324.704 321.889 323.841 321.889 322.725C321.889 320.954 321.498 319.844 320.716 319.396C320.394 319.212 319.939 319.12 319.353 319.12C318.778 319.12 318.232 319.241 317.714 319.482C317.254 320.368 317.024 321.397 317.024 322.57C317.024 323.697 317.173 324.566 317.472 325.175C317.818 325.865 318.467 326.21 319.422 326.21ZM315.437 322.725C315.437 321.265 315.77 320.126 316.437 319.31C317.104 318.481 318.134 318.067 319.525 318.067C320.917 318.067 321.923 318.447 322.544 319.206C323.166 319.954 323.476 321.063 323.476 322.536C323.476 324.008 323.143 325.164 322.475 326.003C321.82 326.843 320.819 327.263 319.474 327.263C318.128 327.263 317.116 326.872 316.437 326.089C315.77 325.307 315.437 324.186 315.437 322.725Z" fill="#581E96"/>
<path d="M326.152 325.934C326.554 326.107 327.043 326.193 327.618 326.193C328.205 326.193 328.665 326.084 328.998 325.865C329.332 325.647 329.498 325.348 329.498 324.968C329.498 324.589 329.343 324.272 329.033 324.019C328.722 323.766 328.343 323.542 327.894 323.346C327.445 323.151 326.997 322.944 326.548 322.725C326.1 322.507 325.72 322.219 325.41 321.863C325.099 321.506 324.944 321.092 324.944 320.621C324.944 319.827 325.208 319.206 325.738 318.757C326.267 318.297 326.997 318.067 327.929 318.067C328.872 318.067 329.757 318.28 330.585 318.706C330.597 318.821 330.603 319.131 330.603 319.637C330.603 320.132 330.551 320.557 330.447 320.914C330.171 321.006 329.843 321.052 329.464 321.052L328.895 319.292C328.642 319.166 328.297 319.103 327.859 319.103C327.434 319.103 327.095 319.218 326.842 319.448C326.589 319.666 326.462 319.948 326.462 320.293C326.462 320.626 326.617 320.92 326.928 321.173C327.25 321.426 327.635 321.656 328.084 321.863C328.532 322.058 328.981 322.271 329.429 322.501C329.878 322.72 330.257 323.013 330.568 323.381C330.89 323.737 331.051 324.151 331.051 324.623C331.051 325.451 330.729 326.101 330.085 326.572C329.452 327.033 328.67 327.263 327.739 327.263C327.233 327.263 326.692 327.182 326.117 327.021C325.542 326.849 325.059 326.63 324.668 326.365C324.668 325.595 324.737 324.911 324.875 324.313C325.139 324.267 325.496 324.244 325.945 324.244L326.152 325.934Z" fill="#581E96"/>
<path d="M333.797 325.969L333.659 319.465H332.33L332.278 318.861C332.394 318.78 332.727 318.631 333.279 318.412L334.694 316.204C334.924 316.227 335.102 316.285 335.229 316.377L335.211 318.274C336.074 318.274 336.781 318.332 337.333 318.447C337.333 318.757 337.235 319.097 337.04 319.465H335.177C335.154 320.845 335.131 322.938 335.108 325.744C335.752 325.779 336.396 325.894 337.04 326.089L337.023 326.693C336.862 326.797 336.448 326.918 335.781 327.056C335.125 327.194 334.584 327.263 334.159 327.263C334.101 327.171 334.027 326.975 333.935 326.676C333.843 326.365 333.797 326.13 333.797 325.969Z" fill="#581E96"/>
<path d="M342.9 326.072C343.406 326.072 344.199 325.831 345.28 325.348C345.499 325.647 345.614 325.911 345.625 326.141C345.039 326.486 344.464 326.757 343.9 326.952C343.337 327.148 342.934 327.245 342.693 327.245C341.358 327.245 340.341 326.849 339.639 326.055C338.937 325.25 338.587 324.128 338.587 322.691C338.587 321.253 338.926 320.126 339.605 319.31C340.295 318.481 341.324 318.067 342.693 318.067C343.751 318.067 344.556 318.447 345.108 319.206C345.671 319.965 345.953 320.983 345.953 322.26C345.861 322.421 345.786 322.53 345.729 322.587L340.174 322.501C340.185 323.663 340.387 324.548 340.778 325.158C341.18 325.767 341.888 326.072 342.9 326.072ZM344.383 321.518C344.383 320.759 344.245 320.172 343.969 319.758C343.693 319.333 343.233 319.12 342.589 319.12C341.945 319.12 341.37 319.241 340.864 319.482C340.519 320.172 340.3 320.879 340.208 321.604C341.117 321.592 342.509 321.564 344.383 321.518Z" fill="#581E96"/>
<path d="M349.675 314.22C350.031 314.22 350.284 314.232 350.434 314.255C350.434 314.657 350.359 315.117 350.209 315.635C350.106 322.421 350.054 325.831 350.054 325.865L351.503 326.003C351.503 326.325 351.406 326.67 351.21 327.038H347.242L347.19 326.434C347.719 326.25 348.237 326.112 348.743 326.02L348.571 315.583C347.938 315.549 347.432 315.48 347.052 315.376L347.121 314.479C347.708 314.307 348.559 314.22 349.675 314.22Z" fill="#581E96"/>
<path d="M413.819 91.1218H240.23V110.159H413.819V91.1218Z" fill="#854DCE"/>
<path d="M416.81 83.9294H237.239V91.1218H416.81V83.9294Z" fill="#581E96"/>
<path d="M413.819 91.1218H240.23V93.9028H413.819V91.1218Z" fill="#6F3FBC"/>
<path d="M282.198 96.0783H244.886V107.684H282.198V96.0783Z" fill="#C3BDEF"/>
<path opacity="0.3" d="M270.55 96.0783L258.944 107.685H247.484L259.089 96.0783H270.55Z" fill="white"/>
<path opacity="0.3" d="M277.048 96.0783L265.443 107.685H262.193L273.798 96.0783H277.048Z" fill="white"/>
<path d="M324.271 96.0783H286.959V107.684H324.271V96.0783Z" fill="#C3BDEF"/>
<path opacity="0.3" d="M312.622 96.0783L301.017 107.685H289.557L301.162 96.0783H312.622Z" fill="white"/>
<path opacity="0.3" d="M319.119 96.0783L307.514 107.685H304.264L315.871 96.0783H319.119Z" fill="white"/>
<path d="M366.343 96.0783H329.031V107.684H366.343V96.0783Z" fill="#C3BDEF"/>
<path opacity="0.3" d="M354.695 96.0783L343.088 107.685H331.629L343.234 96.0783H354.695Z" fill="white"/>
<path opacity="0.3" d="M361.191 96.0783L349.586 107.685H346.336L357.942 96.0783H361.191Z" fill="white"/>
<path d="M408.414 96.0783H371.102V107.684H408.414V96.0783Z" fill="#C3BDEF"/>
<path opacity="0.3" d="M396.764 96.0783L385.159 107.685H373.698L385.304 96.0783H396.764Z" fill="white"/>
<path opacity="0.3" d="M403.262 96.0783L391.657 107.685H388.407L400.013 96.0783H403.262Z" fill="white"/>
<path d="M450.213 468.549C450.213 470.639 469.45 472.335 493.18 472.335C516.909 472.335 536.146 470.639 536.146 468.549C536.146 466.458 516.909 464.763 493.18 464.763C469.45 464.763 450.213 466.458 450.213 468.549Z" fill="#E6ECEF"/>
<path d="M484.805 235.83C483.189 237.453 481.68 239.259 480.887 241.409C480.095 243.56 480.123 246.113 481.428 247.996C482.122 248.997 483.341 249.802 484.515 249.474C484.83 249.387 485.117 249.223 485.394 249.049C488.298 247.228 490.319 244.064 490.75 240.665" fill="#153351"/>
<path d="M518.602 452.517C518.602 452.517 520.518 458.084 521.071 459.481C521.624 460.878 525.755 459.593 525.995 458.69C526.235 457.787 524.372 451.141 524.372 451.141" fill="#FCB6AC"/>
<path d="M527.218 458.825C527.721 460.306 528.651 462.416 528.453 463.16C528.257 463.905 523.014 466.13 521.84 466.844C520.968 467.375 519.046 468.106 518.05 468.285C514.565 468.908 511.891 468.302 511.627 467.762C510.518 465.502 517.422 464 520.365 457.625C520.365 457.625 520.887 457.565 521.43 458.104C522.265 458.933 523.43 459.267 524.378 458.701C524.92 458.377 525.572 457.682 525.828 457.039C525.828 457.039 526.715 457.344 527.218 458.825Z" fill="black"/>
<path d="M472.49 454.812C472.49 454.812 472.625 460.698 472.726 462.198C472.828 463.697 477.155 463.729 477.658 462.942C478.161 462.154 478.407 455.258 478.407 455.258" fill="#FCB6AC"/>
<path d="M478.78 463.44C478.808 465.005 479.053 467.297 478.639 467.947C478.224 468.596 472.555 469.124 471.219 469.448C470.227 469.689 468.175 469.801 467.172 469.667C463.662 469.202 461.3 467.811 461.211 467.216C460.841 464.727 467.876 465.393 472.616 460.214C472.616 460.214 473.131 460.315 473.485 460.996C474.028 462.039 475.037 462.712 476.113 462.459C476.728 462.315 477.56 461.852 477.999 461.316C477.999 461.316 478.752 461.875 478.78 463.44Z" fill="black"/>
<path d="M424.843 225.075C424.863 224.434 425.707 224.681 425.957 225.191C425.992 225.259 426.043 225.418 426.107 225.634C425.953 224.593 425.841 223.741 425.847 223.531C425.867 222.922 426.641 223.09 426.935 223.543C426.887 223.123 426.857 222.805 426.859 222.67C426.87 221.889 427.72 222.149 427.979 222.772C428.036 222.912 428.133 223.31 428.246 223.83C428.214 223.552 428.193 223.339 428.197 223.243C428.217 222.603 428.961 222.71 429.212 223.219C429.294 223.386 429.355 223.696 429.525 224.437C429.67 225.068 429.903 225.74 430.037 226.376C430.159 226.953 431.068 229.644 432.455 229.823C434.581 230.099 432.957 226.573 434.361 225.636C434.802 225.342 435.526 228.12 435.693 229.709C435.859 231.299 435.934 232.098 435.861 233.049C435.808 233.999 435.398 235.37 435.518 235.932C435.711 236.836 436.935 238.629 436.935 238.629L431.758 240.265C431.758 240.265 430.271 237.469 429.578 236.846C427.843 235.38 426.689 233.629 425.915 231.458C425.431 230.099 425.185 228.658 424.959 227.237C424.964 227.237 424.836 225.284 424.843 225.075Z" fill="#FCB6AC"/>
<path d="M478.109 265.083C478.109 265.083 461.362 266.319 451.436 256.887C443.348 247.331 435.416 236.674 434.807 235.675C433.426 236.338 430.477 237.993 430.477 237.993C430.477 237.993 441.823 258.627 445.959 263.213C450.093 267.797 458.094 275.206 473.931 277.901C480.655 268.759 478.109 265.083 478.109 265.083Z" fill="#FCB6AC"/>
<path d="M466.791 399.329C465.823 386.679 470.198 347.017 470.625 343.604C471.036 340.191 473.451 339.756 475.286 339.196C484.435 336.444 495.287 350.636 492.395 363.379C492.355 363.585 492.299 363.804 492.241 364.024C490.522 371.405 480.816 395.123 481.497 401.981C486.811 416.331 480.781 446.066 478.962 458.571C478.739 458.578 478.518 458.57 478.311 458.56C473.742 458.42 471.165 457.774 471.165 457.774C471.165 457.774 467.76 411.979 466.791 399.329Z" fill="#113C7A"/>
<path d="M478.407 401.822C478.075 397.149 482.798 360.013 483.966 360.519C484.355 360.687 484.595 361.075 484.808 361.442C485.786 363.122 486.722 364.828 487.544 366.589C488.394 368.409 489.103 370.285 489.711 372.193C486.287 382.295 480.987 396.853 481.496 401.982C484.646 410.489 483.81 424.403 482.226 436.929C482.84 420.447 478.671 405.55 478.407 401.822Z" fill="#072858"/>
<path d="M472.093 330.101C472.093 330.101 475.57 330.96 482.493 330.778C491.285 330.547 502.435 326.097 502.435 326.097C513.651 338.237 507.485 352.45 507.875 357.125C508.264 361.799 509.172 384.01 510.174 396.381C521.548 407.519 521.963 437.134 525.291 452.706C525.332 452.883 525.372 453.059 525.413 453.237C520.746 454.965 517.868 455.342 517.868 455.342L517.428 454.095C514.041 443.852 498.393 414.478 494.499 402.999C490.966 392.585 481.839 360.975 481.671 361.005L470.036 362.995C470.011 342.858 472.093 330.101 472.093 330.101Z" fill="#113C7A"/>
<path d="M503.937 250.055C503.631 251.403 502.485 253.319 501.123 255.234C498.801 258.484 495.886 261.704 495.625 262.197C493.811 265.679 496.437 268.929 496.437 268.929L490.039 274.76L488.08 276.559L486.774 275.254L482.77 271.265L483.09 265.911C483.09 265.911 483.873 265.505 484.381 263.895C484.438 263.706 484.496 263.532 484.555 263.357C484.714 262.836 484.845 262.386 484.86 262.269C484.41 262.051 483.28 261.601 481.277 260.485C479.144 259.309 478.579 256.698 479.13 254.217C479.566 252.258 482.641 242.423 482.641 242.423C485.427 230.237 501.224 237.724 503.342 240.058C505.473 242.409 504.777 246.327 503.937 250.055Z" fill="#FCB6AC"/>
<path d="M510.181 343.739C507.99 344.146 505.859 344.465 503.769 344.711C484.011 347.178 469.126 343.521 469.126 343.521C469.126 343.521 467.443 295.475 474.799 269.942C476.119 265.344 478.469 264.416 483.053 264.837C487.212 272.2 495.701 265.919 495.701 265.919C499.213 267.66 502.056 269.843 504.741 272.062C505.147 272.41 505.48 273.251 505.728 274.427C506.235 276.864 506.439 280.722 506.497 284.597C506.614 290.979 506.352 297.392 506.497 297.596C506.598 297.74 506.699 301.41 506.874 306.561L506.917 307.374C507.209 315.437 509.065 336.69 510.181 343.739Z" fill="#58AFFB"/>
<path d="M506.917 307.371L506.873 306.558C506.699 301.409 506.598 297.739 506.497 297.592C506.352 297.39 506.613 290.978 506.497 284.594L501.159 283.824C501.159 283.824 493.063 283.027 492.875 283.243C492.799 283.332 491.039 284.405 488.987 285.641C486.727 284.565 484.837 283.692 484.673 283.669C484.25 283.608 478.78 282.821 478.78 282.821L477.249 284.329C477.249 284.329 480.05 286.45 482.196 287.417C482.196 287.417 481.984 289.019 482.196 290.107C482.196 290.107 488.921 292.298 495.175 293.094C497.735 293.419 499.922 295.213 500.664 297.684C500.751 297.975 500.83 298.282 500.899 298.608C501.581 301.727 503.161 332.176 503.772 344.711C505.86 344.465 507.993 344.146 510.184 343.739C509.064 336.69 507.208 315.437 506.917 307.371Z" fill="#2E96F0"/>
<path d="M479.629 264.894C479.629 264.894 471.162 266.121 463.404 262.683C459.075 267.773 457.32 275.953 457.32 275.953C457.32 275.953 467.786 282.605 475.436 283.245C477.077 272.093 479.629 264.894 479.629 264.894Z" fill="#58AFFB"/>
<path d="M478.156 266.493C478.156 266.493 473.441 272.459 471.893 282.6C466.618 281.573 458.363 277.01 457.322 275.951C459.645 276.702 469.556 280.389 470.914 277.337C473.441 271.651 478.156 266.493 478.156 266.493Z" fill="#58AFFB"/>
<path d="M419.917 211.927L436.58 214.59C437.676 214.764 438.787 214.389 439.553 213.587L451.192 201.37C453.12 199.347 456.528 200.412 456.961 203.171L459.579 219.842C459.752 220.938 460.451 221.878 461.452 222.358L476.668 229.653C479.188 230.86 479.228 234.432 476.737 235.698L461.69 243.339C460.702 243.84 460.023 244.798 459.876 245.897L457.642 262.624C457.271 265.392 453.888 266.535 451.915 264.558L439.998 252.61C439.215 251.825 438.095 251.475 437.004 251.674L420.405 254.717C417.656 255.22 415.525 252.355 416.795 249.868L424.477 234.843C424.981 233.856 424.969 232.682 424.441 231.707L416.418 216.861C415.092 214.4 417.158 211.486 419.917 211.927Z" fill="#F8D845"/>
<path d="M490.88 289.754C490.88 289.754 480.41 287.166 471.73 280.898C469.181 279.058 466.567 275.702 466.012 272.607C464.356 263.353 467.308 246.627 468.73 240.5C472.881 240.768 473.72 241.643 473.72 241.643C473.72 241.643 474.983 259.682 474.821 270.313C474.821 270.313 484.978 276.688 495.794 276.054" fill="#FCB6AC"/>
<path d="M473.702 242.172C473.702 242.172 473.695 239.068 474.681 237.325C475.665 235.581 478.287 233.136 477.577 230.584C477.314 229.634 475.698 227.434 473.024 226.34C469.049 224.712 467.412 225.173 467.137 226.056C466.861 226.939 469.197 228.745 469.054 230.444C468.91 232.143 468.045 232.729 467.333 234.251C466.263 236.54 468.685 239.279 468.675 240.743C468.669 241.782 473.702 242.172 473.702 242.172Z" fill="#FCB6AC"/>
<path d="M499.239 274.429C499.239 274.429 492.982 275.782 486.279 274.823C486.279 274.823 483.735 280.981 482.768 289.02C482.768 289.02 490.589 293.578 502.296 289.818C505.653 288.74 507.786 285.581 507.889 282.057C508.124 273.879 504.019 271.472 504.019 271.472" fill="#58AFFB"/>
<path d="M486.28 274.823C486.28 274.823 487.06 274.782 488.22 274.763C489.376 274.752 490.917 274.738 492.459 274.724C493.227 274.718 493.996 274.712 494.715 274.706C495.435 274.685 496.107 274.689 496.683 274.656C497.256 274.609 497.745 274.62 498.08 274.576C498.421 274.556 498.616 274.545 498.616 274.545C498.616 274.545 497.886 274.832 496.732 275.061C495.581 275.288 494.021 275.448 492.464 275.448C490.905 275.461 489.353 275.322 488.197 275.168C487.04 275.012 486.28 274.823 486.28 274.823Z" fill="#989DED"/>
<path d="M488.418 238.614C484.897 237.518 480.205 237.308 482.276 232.188C483.485 229.198 487.577 226.763 492.518 227.032C494.553 227.143 496.761 228.848 498.46 231.227C499.501 232.688 500.746 234.013 502.292 234.922C507.96 238.258 508.565 243.874 507.173 249.544C507.173 249.544 503.71 261.545 494.632 261.992C494.632 261.992 494.69 259.597 495.563 256.467C495.563 256.467 499.455 255.31 500.113 253.114C500.506 251.808 499.268 250.685 498.45 250.667C497.357 250.64 496.513 252.013 496.513 252.013C496.513 252.013 496.473 249.603 496.935 247.453C497.11 246.644 497.595 245.986 498.231 245.442C498.078 245.133 496.28 241.064 488.418 238.614Z" fill="#153351"/>
<path d="M490.357 262.457C490.357 262.457 488.499 263.922 484.554 263.357C484.713 262.836 484.843 262.385 484.859 262.269C484.859 262.269 488.327 262.82 490.357 262.457Z" fill="#F2A49C"/>
<path d="M110.462 468.549C110.462 470.639 129.699 472.335 153.429 472.335C177.158 472.335 196.395 470.639 196.395 468.549C196.395 466.458 177.158 464.762 153.429 464.762C129.699 464.762 110.462 466.458 110.462 468.549Z" fill="#E6ECEF"/>
<path d="M161.046 243.159C163.499 247.396 161.381 253.187 163.857 257.412C164.847 259.103 166.527 260.431 167.002 262.332C167.402 263.93 166.783 265.736 165.486 266.752C164.188 267.767 162.287 267.936 160.831 267.166C160.517 266.999 160.219 266.792 159.878 266.692C158.654 266.334 157.547 267.421 156.495 268.14C155.204 269.023 153.521 269.424 152.038 268.928C150.137 268.292 148.961 266.376 148.328 264.473C146.557 259.156 147.814 253.335 149.45 247.976C150.268 245.297 151.474 242.326 154.101 241.355" fill="#153351"/>
<path d="M199.922 299.957C191.653 304.629 179.757 311.214 178.408 311.214C176.305 311.214 162.031 297.709 157.359 280.982C156.243 276.993 156.677 272.308 160.421 270.277C160.421 270.277 163.525 271.031 165.556 274.861C168.645 280.693 177.916 300.031 179.961 300.756C180.948 300.104 183.413 299.146 186.635 297.971V299.957H199.922Z" fill="#FFB9B0"/>
<path d="M159.329 269.791C162.861 270.616 165.768 272.884 167.456 276.093C167.886 276.91 168.225 277.773 168.563 278.634C170.013 282.32 172.007 285.658 173.455 289.344C171.473 290.943 169.075 291.678 167.056 292.43C165.162 293.136 163.11 293.41 161.098 293.229C160.755 293.198 160.407 293.153 160.095 293.008C159.676 292.815 159.356 292.46 159.052 292.113C158.432 291.401 157.828 290.675 157.241 289.936C156.738 289.302 156.235 288.635 156.025 287.854C155.738 286.793 156.025 285.671 156.311 284.61" fill="#FF3D9D"/>
<g opacity="0.35">
<path d="M162.887 279.861C162.754 279.704 162.613 279.539 162.421 279.464C162.058 279.322 161.635 279.561 161.442 279.898C161.25 280.238 161.235 280.646 161.238 281.035C161.255 282.53 161.488 284.022 161.932 285.45L161.468 293.226C161.471 293.231 161.476 293.235 161.479 293.241C163.366 293.357 165.278 293.089 167.05 292.429C167.89 292.116 168.799 291.792 169.713 291.423C168.782 287.039 165.794 283.327 162.887 279.861Z" fill="#DC1778"/>
</g>
<path d="M150.83 262.069C150.83 262.069 150.725 266.938 151.473 267.256C152.957 267.888 154.62 268.229 154.62 268.229L154.67 278.307L141.236 276.281L131.993 271.136C131.993 271.136 141.599 267.952 141.683 266.994C141.767 266.037 141.155 260.648 141.155 260.648" fill="#FFB9B0"/>
<path d="M130.187 407.879C130.182 407.897 130.182 407.897 130.179 407.915C126.504 425.342 128.255 449.283 127.436 462.402C127.627 462.455 132.429 463.056 132.429 463.056C132.429 463.056 143.796 407.759 145.859 397.169C145.998 396.428 146.095 395.733 146.123 395.118C146.618 387.15 139.436 386.744 135.388 393.331C134.72 394.411 134.095 395.601 133.536 396.887C133.307 397.407 133.096 397.933 132.876 398.496L132.871 398.514C132.203 400.238 131.607 402.097 131.089 404.076L131.047 404.279C130.878 404.836 130.741 405.401 130.606 405.968L130.578 406.097C130.439 406.683 130.315 407.272 130.187 407.879Z" fill="#FFB9B0"/>
<path d="M151.708 345.331C151.574 346.773 150.805 353.635 149.882 361.729C149.094 368.533 148.228 376.204 147.555 382.278C147.056 386.834 146.691 390.467 146.537 392.178C146.461 393.236 146.325 394.196 146.134 395.12V395.159C144.404 403.117 138.906 403.578 135.561 401.733C135.1 401.502 134.658 401.175 134.292 400.869C133.523 400.176 133.004 399.33 132.87 398.524V398.505C132.658 396.87 132.447 394.64 132.255 391.988V391.95C132.236 391.931 132.236 391.931 132.236 391.911L132.218 391.853C131.814 386.682 131.467 380.03 131.16 373.552C130.794 365.594 130.564 357.923 130.506 353.597C130.488 353.347 130.488 353.116 130.467 352.886C130.41 339.622 142.598 331.125 150.171 335.239C150.268 335.278 150.344 335.315 150.441 335.373C150.556 335.449 150.653 335.507 150.729 335.546C151.595 336.122 151.883 338.102 151.901 340.371C151.94 342.025 151.825 343.831 151.708 345.331Z" fill="#FFB9B0"/>
<path d="M133.162 395.381L132.234 391.907C132.231 391.926 132.231 391.926 132.241 391.949C132.262 392.734 132.352 398.332 131.089 404.079L131.047 404.282C130.915 404.83 130.775 405.414 130.606 405.971L130.578 406.101C130.317 407.021 130.197 407.592 130.186 407.882C130.181 407.901 130.181 407.901 130.178 407.918C130.167 409.494 133.523 402.499 134.291 400.862C134.386 400.655 134.445 400.535 134.445 400.535L133.535 396.892L133.162 395.381Z" fill="#FFB9B0"/>
<path d="M159.419 411.207C159.419 411.225 159.419 411.225 159.418 411.246C159.069 429.494 164.706 450.948 166.194 464.2C166.377 464.207 170.797 463.61 170.797 463.61C170.797 463.61 171.64 407.708 171.699 396.663C171.699 395.892 171.666 395.178 171.588 394.558C170.681 386.509 164.153 387.889 161.631 395.445C161.213 396.686 160.854 398.024 160.569 399.442C160.452 400.017 160.349 400.592 160.248 401.207V401.225C159.939 403.105 159.72 405.104 159.588 407.202L159.583 407.413C159.525 408.01 159.499 408.606 159.472 409.203L159.469 409.336C159.443 409.955 159.432 410.571 159.419 411.207Z" fill="#FFB9B0"/>
<path d="M163.212 403.767C162.741 403.642 162.31 403.443 161.928 403.208C161.105 402.711 160.49 402.016 160.25 401.232L160.251 401.211C159.773 399.64 159.202 397.445 158.568 394.854C158.554 394.832 158.554 394.832 158.556 394.812L158.529 394.746C157.296 389.712 155.837 383.181 154.473 376.827C152.799 369.004 151.281 361.427 150.501 357.126C150.44 356.894 149.764 353.762 149.721 353.532C147.382 340.201 157.779 331.517 165.334 334.059C165.443 334.094 165.536 334.127 165.63 334.16C167.148 334.77 167.57 340.113 167.911 343.724C168.252 347.335 170.821 384.763 171.461 391.531C171.564 392.604 171.609 393.608 171.594 394.562C171.416 402.93 166.541 404.762 163.212 403.767Z" fill="#FFB9B0"/>
<path d="M159.974 398.036L158.551 394.811C158.551 394.83 158.551 394.83 158.565 394.85C158.718 395.626 159.749 401.172 159.587 407.201L159.582 407.413C159.556 407.991 159.529 408.608 159.472 409.202L159.468 409.336C159.389 410.317 159.378 410.915 159.417 411.205C159.417 411.224 159.417 411.224 159.415 411.244C159.674 412.813 161.505 405.023 161.918 403.204C161.968 402.974 162 402.84 162 402.84L160.565 399.441L159.974 398.036Z" fill="#FFB9B0"/>
<path d="M136.812 319.727C136.812 319.727 127.027 332.156 128.031 344.644C128.45 349.842 129.093 354.423 129.687 359.653C129.772 360.407 130.945 371.389 130.615 371.4C130.615 371.4 150.773 377.63 170.25 369.468C170.25 368.138 171.807 342.576 161.287 318.205C148.589 319.998 136.812 319.727 136.812 319.727Z" fill="#343996"/>
<path d="M167.451 291.03C167.373 294.591 165.479 296.759 162.762 299.76C162.418 300.294 161.574 308.23 161.286 313.506C161.137 316.251 162.309 317.976 161.286 318.204C157.375 321.615 143.281 324.378 136.816 319.722C137.495 313.982 134.924 301.34 133.188 294.912C132.917 293.922 132.68 293.087 132.464 292.443C130.849 287.561 127.932 271.902 130.091 271.22C130.52 271.085 131.19 270.907 131.962 270.675C135.341 269.656 140.335 267.907 140.335 267.907C140.335 267.907 143.264 276.569 150.878 277.616C155.034 275.904 154.668 270.647 154.618 268.231C155.978 268.606 156.577 268.98 160.789 270.229C161.97 271.931 160.951 275.484 162.859 280.781C163.334 282.097 167.544 286.695 167.451 291.03Z" fill="#FF3D9D"/>
<path d="M160.551 242.182C160.551 242.182 161.321 251.595 159.715 256.527C158.526 260.182 153.642 263.592 149.56 263.545C138.32 263.545 136.305 248.279 136.363 247.54C136.422 246.802 152.94 240.393 152.94 240.393L160.551 242.182Z" fill="#FFB9B0"/>
<path d="M181.952 469.484C177.951 470.203 173.675 469.079 171.924 469.382C170.475 469.63 166.754 470.574 165.362 469.322C163.968 468.07 164.194 463.652 165.795 463.065C165.795 463.065 166.165 463.207 166.833 463.316C167.831 463.467 169.494 463.54 171.569 462.928C174.613 464.18 174.726 464.726 178.186 465.426C179.694 465.734 181.442 466.235 182.595 466.763C184.086 467.445 184.206 469.08 181.952 469.484Z" fill="black"/>
<path d="M138.766 471.243C134.758 470.569 132.22 468.351 130.468 468.046C129.021 467.789 125.376 467.079 124.993 465.586C124.71 464.474 125.809 459.856 127.514 459.843C127.514 459.843 127.815 460.102 128.408 460.43C129.297 460.91 130.837 461.54 132.995 461.665C135.438 463.872 135.359 464.424 138.38 466.251C139.694 467.05 141.17 468.113 142.076 469.001C143.252 470.147 141.025 471.626 138.766 471.243Z" fill="black"/>
<path d="M130.666 289.847C123.891 294.925 110.705 311.273 106.512 312.129C106.411 312.143 106.31 312.159 106.193 312.159V299.755L106.482 300.017C106.482 300.017 117.449 285.423 120.467 280.867C123.788 275.847 126.778 271.568 131.622 270.727C132.74 271.423 131.247 289.411 130.666 289.847Z" fill="#FFB9B0"/>
<path d="M133.285 269.934C133.285 269.934 128.696 269.992 126.723 271.616C124.75 273.242 115.325 288.181 115.325 288.181C115.325 288.181 115.083 291.004 117.804 293.371C120.714 295.901 124.591 296.309 124.591 296.309C124.591 296.309 129.323 291.6 131.989 289.458C133.651 288.123 133.816 291.427 133.816 291.427L142.157 283.284L133.285 269.934Z" fill="#FF3D9D"/>
<path d="M130.515 270.115C130.264 269.981 130.02 269.838 129.78 269.696C128.494 268.928 127.309 268.119 126.767 266.655C125.985 264.547 125.612 261.309 126.705 259.263C127.444 257.879 128.836 256.973 129.788 255.726C131.104 254.002 131.494 251.747 131.605 249.581C131.715 247.415 131.588 245.218 132.042 243.097C132.821 239.471 133.853 236.017 136.648 233.68C141.125 229.938 150.099 227.721 154.979 231.894C155.867 232.654 156.041 233.261 157.24 233.378C158.847 233.533 159.89 233.739 161.335 234.573C162.936 235.498 164.878 236.805 164.653 238.905C164.498 240.36 162.844 242.663 161.601 243.349C161.08 243.636 160.471 243.725 159.876 243.737C157.973 243.775 156.396 242.535 154.529 242.736C153.616 242.834 152.762 243.326 152.187 244.036C151.514 244.866 151.605 246.025 150.82 246.802C149.56 248.047 147.608 247.941 146.114 248.753C145.867 248.887 145.614 249.041 145.471 249.282C145.333 249.519 145.319 249.807 145.308 250.082C145.278 250.869 145.25 251.655 145.22 252.442C144.481 252.116 144.403 251.062 143.793 250.531C143.204 250.02 142.243 250.16 141.652 250.67C141.061 251.179 140.776 251.957 140.619 252.72C140.431 253.639 140.755 254.612 141.036 255.537C141.525 257.139 142.897 258.581 144.006 257.524C144.811 258.707 143.931 260.682 143.902 262.021C143.878 263.081 143.897 265.185 144.89 265.883C145.803 266.523 147.248 266.037 147.304 267.689C147.355 269.201 145.842 270.381 144.341 270.567C142.84 270.752 141.356 270.224 139.906 269.793C138.456 269.363 136.87 269.026 135.459 269.575C134.604 269.906 133.866 270.548 132.961 270.699C132.114 270.837 131.289 270.526 130.515 270.115Z" fill="#153351"/>
<path d="M214.524 296.276H87.4121V358.652H214.524V296.276Z" fill="#F8D846"/>
<path d="M105.28 305.791L105.963 307.175L106.079 307.411L106.339 307.448L107.868 307.67L106.763 308.747L106.575 308.931L106.619 309.19L106.879 310.713L105.513 309.994L105.281 309.872L105.048 309.994L103.681 310.713L103.942 309.19L103.987 308.931L103.798 308.747L102.693 307.67L104.22 307.448L104.48 307.411L104.597 307.175L105.28 305.791Z" fill="#FFF0B0" stroke="#6F4B00"/>
<path d="M116.324 305.791L117.007 307.175L117.123 307.411L117.383 307.448L118.911 307.67L117.807 308.748L117.619 308.931L117.663 309.19L117.923 310.713L116.557 309.994L116.324 309.872L116.092 309.994L114.726 310.713L114.986 309.19L115.03 308.931L114.842 308.747L113.737 307.67L115.264 307.448L115.524 307.411L115.641 307.175L116.324 305.791Z" fill="#FFF0B0" stroke="#6F4B00"/>
<path d="M127.37 305.791L128.052 307.175L128.169 307.411L128.429 307.448L129.957 307.67L128.852 308.748L128.664 308.931L128.709 309.19L128.969 310.713L127.603 309.994L127.37 309.872L127.138 309.994L125.771 310.713L126.032 309.19L126.076 308.931L125.888 308.747L124.783 307.67L126.31 307.448L126.57 307.411L126.687 307.175L127.37 305.791Z" fill="#FFF0B0" stroke="#6F4B00"/>
<path d="M138.414 305.791L139.098 307.175L139.214 307.411L139.474 307.448L141.001 307.67L139.896 308.748L139.708 308.931L139.753 309.19L140.013 310.713L138.647 309.994L138.414 309.872L138.182 309.994L136.814 310.713L137.076 309.19L137.12 308.931L136.932 308.747L135.827 307.67L137.354 307.448L137.614 307.411L137.731 307.175L138.414 305.791Z" fill="#FFF0B0" stroke="#6F4B00"/>
<path d="M149.46 305.791L150.144 307.175L150.26 307.411L150.52 307.448L152.047 307.67L150.942 308.748L150.754 308.931L150.799 309.19L151.059 310.713L149.693 309.994L149.46 309.872L149.228 309.994L147.861 310.713L148.122 309.19L148.166 308.931L147.978 308.747L146.873 307.67L148.4 307.448L148.66 307.411L148.776 307.175L149.46 305.791Z" fill="#FFF0B0" stroke="#6F4B00"/>
<g opacity="0.66">
<path d="M199.839 345.902H173.438" stroke="#6F4B00" stroke-width="2.1159" stroke-miterlimit="10" stroke-linecap="round" stroke-linejoin="round"/>
<path d="M120.704 336.497H102.836" stroke="#6F4B00" stroke-width="2.1159" stroke-miterlimit="10" stroke-linecap="round" stroke-linejoin="round"/>
<path d="M199.84 336.497H128.447" stroke="#6F4B00" stroke-width="2.1159" stroke-miterlimit="10" stroke-linecap="round" stroke-linejoin="round"/>
<path d="M199.839 327.092H102.836" stroke="#6F4B00" stroke-width="2.1159" stroke-miterlimit="10" stroke-linecap="round" stroke-linejoin="round"/>
<path d="M132.747 317.687H102.836" stroke="#6F4B00" stroke-width="2.1159" stroke-miterlimit="10" stroke-linecap="round" stroke-linejoin="round"/>
<path d="M199.839 317.687H140.192" stroke="#6F4B00" stroke-width="2.1159" stroke-miterlimit="10" stroke-linecap="round" stroke-linejoin="round"/>
<path d="M165.727 345.902H102.836" stroke="#6F4B00" stroke-width="2.1159" stroke-miterlimit="10" stroke-linecap="round" stroke-linejoin="round"/>
</g>
<path d="M84.27 320.985C84.8944 319.809 85.455 318.598 85.947 317.362C86.0685 317.055 86.2709 316.69 86.5995 316.712C86.7817 316.725 86.9296 316.86 87.0604 316.988C87.3204 317.242 87.364 317.595 87.4014 317.956C87.526 319.143 87.6474 320.367 87.3127 321.511" fill="#F4B5C7"/>
<path d="M86.2216 331.067C88.5168 331.025 91.5921 328.483 91.5361 325.418C91.48 322.354 88.3113 319.928 86.0161 319.97C83.7209 320.012 83.2319 322.506 83.2895 325.571C83.3456 328.635 83.9264 331.109 86.2216 331.067Z" fill="#FFB9B0"/>
<path d="M194.099 292.975C192.924 293.6 191.712 294.16 190.476 294.652C190.169 294.774 189.805 294.976 189.827 295.305C189.839 295.487 189.975 295.635 190.102 295.766C190.356 296.026 190.71 296.068 191.071 296.107C192.257 296.231 193.48 296.353 194.626 296.018" fill="#F4B5C7"/>
<path d="M204.183 294.928C204.141 297.223 201.598 300.298 198.534 300.242C195.469 300.186 193.043 297.018 193.085 294.722C193.128 292.427 195.622 291.938 198.686 291.996C201.751 292.052 204.225 292.633 204.183 294.928Z" fill="#FFB9B0"/>
<path d="M193.648 181.767H92.2293C90.7749 181.767 89.5962 180.588 89.5962 179.134V152.681C89.5962 151.227 90.7749 150.048 92.2293 150.048H193.648C195.103 150.048 196.281 151.227 196.281 152.681V179.134C196.281 180.588 195.101 181.767 193.648 181.767Z" fill="#D46AC0"/>
<path d="M113.639 156.121H96.4668V177.815H113.639V156.121Z" stroke="white" stroke-width="2" stroke-miterlimit="10"/>
<path d="M96.4668 161.015H113.639" stroke="white" stroke-width="2" stroke-miterlimit="10"/>
<path d="M96.4668 166.966H113.639" stroke="white" stroke-width="2" stroke-miterlimit="10"/>
<path d="M108.316 177.813H101.789V172.801C101.789 170.998 103.251 169.537 105.052 169.537C106.855 169.537 108.316 170.998 108.316 172.801V177.813Z" stroke="white" stroke-width="2" stroke-miterlimit="10"/>
<path d="M102.109 156.121V166.966" stroke="white" stroke-width="2" stroke-miterlimit="10"/>
<path d="M108.032 156.121V166.966" stroke="white" stroke-width="2" stroke-miterlimit="10"/>
<path d="M99.6719 154.003H110.432" stroke="white" stroke-width="2" stroke-miterlimit="10"/>
<path d="M123.698 155.269L125.179 158.271L128.493 158.752L126.096 161.09L126.661 164.389L123.698 162.832L120.735 164.389L121.3 161.09L118.904 158.752L122.216 158.271L123.698 155.269Z" fill="#F8D846"/>
<path d="M138.437 155.269L139.919 158.271L143.233 158.752L140.835 161.09L141.4 164.389L138.437 162.832L135.474 164.389L136.041 161.09L133.643 158.752L136.956 158.271L138.437 155.269Z" fill="#F8D846"/>
<path d="M153.177 155.269L154.658 158.271L157.971 158.752L155.573 161.09L156.14 164.389L153.177 162.832L150.212 164.389L150.779 161.09L148.381 158.752L151.694 158.271L153.177 155.269Z" fill="#F8D846"/>
<path d="M167.915 155.269L169.398 158.271L172.71 158.752L170.313 161.09L170.879 164.389L167.915 162.832L164.952 164.389L165.518 161.09L163.121 158.752L166.435 158.271L167.915 155.269Z" fill="#F8D846"/>
<path d="M182.652 155.269L184.135 158.271L187.448 158.752L185.05 161.09L185.616 164.389L182.652 162.832L179.689 164.389L180.256 161.09L177.858 158.752L181.171 158.271L182.652 155.269Z" fill="#F8D846"/>
<path d="M118.904 168.296H145.596" stroke="white" stroke-width="2" stroke-miterlimit="10" stroke-linecap="round"/>
<path d="M149.005 168.296H175.699" stroke="white" stroke-width="2" stroke-miterlimit="10" stroke-linecap="round"/>
<path d="M178.464 168.296H187.448" stroke="white" stroke-width="2" stroke-miterlimit="10" stroke-linecap="round"/>
<path d="M118.904 172.454H153.176" stroke="white" stroke-width="2" stroke-miterlimit="10" stroke-linecap="round"/>
<path d="M118.904 176.547H187.449" stroke="white" stroke-width="2" stroke-miterlimit="10" stroke-linecap="round"/>
<path d="M155.57 172.454H187.449" stroke="white" stroke-width="2" stroke-miterlimit="10" stroke-linecap="round"/>
<path d="M543.157 91.1217H441.739C440.284 91.1217 439.105 89.943 439.105 88.4886V62.0361C439.105 60.5817 440.284 59.403 441.739 59.403H543.157C544.612 59.403 545.791 60.5817 545.791 62.0361V88.4886C545.791 89.943 544.612 91.1217 543.157 91.1217Z" fill="#1AE5FF"/>
<path d="M463.15 65.4758H445.978V87.1698H463.15V65.4758Z" stroke="white" stroke-width="2" stroke-miterlimit="10"/>
<path d="M445.978 70.37H463.148" stroke="white" stroke-width="2" stroke-miterlimit="10"/>
<path d="M445.978 76.3213H463.148" stroke="white" stroke-width="2" stroke-miterlimit="10"/>
<path d="M457.827 87.1682H451.299V82.1558C451.299 80.3526 452.761 78.892 454.563 78.892C456.366 78.892 457.827 80.3542 457.827 82.1558V87.1682Z" stroke="white" stroke-width="2" stroke-miterlimit="10"/>
<path d="M451.618 65.4758V76.3213" stroke="white" stroke-width="2" stroke-miterlimit="10"/>
<path d="M457.543 65.4758V76.3213" stroke="white" stroke-width="2" stroke-miterlimit="10"/>
<path d="M449.183 63.3582H459.941" stroke="white" stroke-width="2" stroke-miterlimit="10"/>
<path d="M473.21 64.6241L474.69 67.6262L478.004 68.1074L475.606 70.4446L476.173 73.7441L473.21 72.187L470.246 73.7441L470.812 70.4446L468.414 68.1074L471.727 67.6262L473.21 64.6241Z" fill="#FFF0B0"/>
<path d="M487.948 64.6241L489.43 67.6262L492.744 68.1074L490.346 70.4447L490.911 73.7442L487.948 72.1871L484.984 73.7442L485.551 70.4447L483.153 68.1074L486.467 67.6262L487.948 64.6241Z" fill="#FFF0B0"/>
<path d="M502.688 64.6241L504.169 67.6262L507.482 68.1074L505.084 70.4447L505.651 73.7442L502.688 72.1871L499.723 73.7442L500.29 70.4447L497.892 68.1074L501.206 67.6262L502.688 64.6241Z" fill="#FFF0B0"/>
<path d="M517.426 64.6241L518.907 67.6262L522.221 68.1074L519.824 70.4447L520.389 73.7442L517.426 72.1871L514.463 73.7442L515.028 70.4447L512.632 68.1074L515.944 67.6262L517.426 64.6241Z" fill="#FFF0B0"/>
<path d="M532.163 64.6241L533.645 67.6262L536.959 68.1074L534.561 70.4447L535.126 73.7442L532.163 72.1871L529.2 73.7442L529.767 70.4447L527.369 68.1074L530.682 67.6262L532.163 64.6241Z" fill="#FBFAFF"/>
<path d="M468.414 77.651H495.107" stroke="white" stroke-width="2" stroke-miterlimit="10" stroke-linecap="round"/>
<path d="M498.516 77.651H525.21" stroke="white" stroke-width="2" stroke-miterlimit="10" stroke-linecap="round"/>
<path d="M527.975 77.651H536.96" stroke="white" stroke-width="2" stroke-miterlimit="10" stroke-linecap="round"/>
<path d="M468.414 81.8102H502.688" stroke="white" stroke-width="2" stroke-miterlimit="10" stroke-linecap="round"/>
<path d="M468.414 85.9022H536.96" stroke="white" stroke-width="2" stroke-miterlimit="10" stroke-linecap="round"/>
<path d="M505.081 81.8102H536.96" stroke="white" stroke-width="2" stroke-miterlimit="10" stroke-linecap="round"/>
<path d="M112.45 233.49C112.45 234.605 111.546 235.51 110.431 235.51C109.316 235.51 108.411 234.605 108.411 233.49C108.411 232.375 109.316 231.47 110.431 231.47C111.546 231.47 112.45 232.373 112.45 233.49Z" fill="white"/>
<path d="M172.385 70.3293C172.385 71.4442 171.481 72.3489 170.366 72.3489C169.251 72.3489 168.346 71.4442 168.346 70.3293C168.346 69.2144 169.251 68.3097 170.366 68.3097C171.481 68.3097 172.385 69.2144 172.385 70.3293Z" fill="white"/>
<path d="M282.001 2.01959C282.001 3.1345 281.096 4.03919 279.982 4.03919C278.867 4.03919 277.962 3.1345 277.962 2.01959C277.962 0.904687 278.867 0 279.982 0C281.096 0 282.001 0.904687 282.001 2.01959Z" fill="white"/>
<path d="M383.315 12.6579C383.315 13.7728 382.41 14.6775 381.295 14.6775C380.181 14.6775 379.276 13.7728 379.276 12.6579C379.276 11.543 380.181 10.6383 381.295 10.6383C382.41 10.6383 383.315 11.543 383.315 12.6579Z" fill="white"/>
<path d="M563.291 122.2C563.291 123.315 562.386 124.22 561.271 124.22C560.156 124.22 559.251 123.315 559.251 122.2C559.251 121.086 560.156 120.181 561.271 120.181C562.386 120.181 563.291 121.086 563.291 122.2Z" fill="white"/>
<path d="M137.39 130.978V136.574" stroke="white" stroke-width="2" stroke-miterlimit="10" stroke-linecap="round" stroke-linejoin="round"/>
<path d="M140.189 133.776H134.593" stroke="white" stroke-width="2" stroke-miterlimit="10" stroke-linecap="round" stroke-linejoin="round"/>
<path d="M199.92 225.376V230.972" stroke="white" stroke-width="2" stroke-miterlimit="10" stroke-linecap="round" stroke-linejoin="round"/>
<path d="M202.718 228.174H197.122" stroke="white" stroke-width="2" stroke-miterlimit="10" stroke-linecap="round" stroke-linejoin="round"/>
<path d="M477.695 107.361V112.957" stroke="white" stroke-width="2" stroke-miterlimit="10" stroke-linecap="round" stroke-linejoin="round"/>
<path d="M480.494 110.159H474.897" stroke="white" stroke-width="2" stroke-miterlimit="10" stroke-linecap="round" stroke-linejoin="round"/>
<path d="M557.626 259.47V265.067" stroke="white" stroke-width="2" stroke-miterlimit="10" stroke-linecap="round" stroke-linejoin="round"/>
<path d="M560.425 262.269H554.829" stroke="white" stroke-width="2" stroke-miterlimit="10" stroke-linecap="round" stroke-linejoin="round"/>
<path d="M433.836 126.375V131.971" stroke="white" stroke-width="2" stroke-miterlimit="10" stroke-linecap="round" stroke-linejoin="round"/>
<path d="M436.634 129.173H431.038" stroke="white" stroke-width="2" stroke-miterlimit="10" stroke-linecap="round" stroke-linejoin="round"/>
<path d="M447.747 184.422L443.338 186.773L445.542 181.041" fill="white"/>
<path d="M461.427 177.094C461.427 182.24 457.255 186.412 452.109 186.412C446.963 186.412 442.791 182.24 442.791 177.094C442.791 171.948 446.963 167.776 452.109 167.776C457.254 167.776 461.427 171.948 461.427 177.094Z" fill="white"/>
<path d="M450.442 181.557C452.473 181.591 454.53 181.619 456.397 181.49C456.989 181.449 457.499 180.509 456.781 180.213C457.083 180.057 457.39 179.909 457.521 179.57C457.646 179.249 457.496 178.815 457.161 178.731C457.865 178.905 458.144 177.787 457.594 177.426C457.885 177.178 458.127 176.851 458.189 176.474C458.25 176.097 458.096 175.671 457.761 175.489C457.541 175.369 457.28 175.364 457.029 175.362C456.185 175.356 455.34 175.35 454.496 175.344C454.724 174.022 454.793 172.581 454.122 171.421C453.919 171.071 453.376 170.652 452.945 170.922C452.54 171.174 452.652 171.801 452.672 172.197C452.756 173.841 451.82 175.495 450.369 176.269C450.369 176.269 450.463 179.771 450.442 181.557Z" fill="#3AC379"/>
<path d="M449.706 176.269H446.637V181.552H449.706V176.269Z" fill="#3AC379"/>
<path d="M410.13 62.715L403.376 66.3167L406.754 57.5376" fill="white"/>
<path d="M416.809 65.7639C424.692 65.7639 431.082 59.3738 431.082 51.4912C431.082 43.6087 424.692 37.2186 416.809 37.2186C408.927 37.2186 402.537 43.6087 402.537 51.4912C402.537 59.3738 408.927 65.7639 416.809 65.7639Z" fill="white"/>
<path d="M414.257 58.3273C417.366 58.3802 420.516 58.4223 423.377 58.2245C424.283 58.1622 425.065 56.7235 423.966 56.2688C424.428 56.0305 424.897 55.8032 425.099 55.2831C425.291 54.7926 425.06 54.1262 424.549 53.9985C425.629 54.2663 426.054 52.5535 425.211 52.0007C425.657 51.6207 426.027 51.1193 426.121 50.5416C426.214 49.9639 425.979 49.3115 425.463 49.0328C425.127 48.849 424.725 48.8428 424.342 48.8397C423.048 48.8304 421.756 48.821 420.462 48.8101C420.812 46.7858 420.918 44.5794 419.889 42.8027C419.579 42.2671 418.746 41.6255 418.086 42.0366C417.466 42.4228 417.639 43.3835 417.67 43.9893C417.799 46.5071 416.367 49.0406 414.142 50.2256C414.143 50.2287 414.29 55.5914 414.257 58.3273Z" fill="#3AC379"/>
<path d="M413.131 50.2285H408.43V58.3209H413.131V50.2285Z" fill="#3AC379"/>
<path d="M160.162 98.8046L165.059 101.416L162.611 95.0504" fill="white"/>
<path d="M155.317 101.016C161.033 101.016 165.667 96.3817 165.667 90.6654C165.667 84.9491 161.033 80.3152 155.317 80.3152C149.6 80.3152 144.966 84.9491 144.966 90.6654C144.966 96.3817 149.6 101.016 155.317 101.016Z" fill="white"/>
<path d="M157.167 95.6233C154.911 95.6622 152.628 95.6918 150.554 95.5486C149.897 95.5034 149.33 94.4601 150.127 94.13C149.792 93.9587 149.451 93.7921 149.305 93.4153C149.166 93.0587 149.333 92.576 149.704 92.4841C148.922 92.6772 148.612 91.4362 149.222 91.036C148.9 90.7604 148.631 90.3976 148.562 89.9787C148.494 89.5598 148.665 89.088 149.039 88.884C149.283 88.7517 149.574 88.7455 149.851 88.7439C150.789 88.7361 151.728 88.7299 152.665 88.7237C152.411 87.2553 152.335 85.6561 153.081 84.3668C153.305 83.9791 153.909 83.5135 154.389 83.8109C154.837 84.0912 154.713 84.7872 154.691 85.2264C154.598 87.0529 155.636 88.8887 157.249 89.7498C157.249 89.7498 157.143 93.6395 157.167 95.6233Z" fill="#3AC379"/>
<path d="M157.986 95.6174H161.395V89.7501H157.986V95.6174Z" fill="#3AC379"/>
<path d="M248.51 58.869L255.374 62.5282L251.942 53.6059" fill="white"/>
<path d="M241.721 61.9661C249.733 61.9661 256.227 55.4714 256.227 47.4599C256.227 39.4483 249.733 32.9536 241.721 32.9536C233.71 32.9536 227.215 39.4483 227.215 47.4599C227.215 55.4714 233.71 61.9661 241.721 61.9661Z" fill="white"/>
<path d="M235.602 43.4985C237.002 42.1283 239.243 42.1516 240.611 43.5515L241.513 44.4733L242.441 43.5593C243.835 42.1859 246.077 42.2046 247.45 43.5966C248.822 44.9903 248.805 47.2325 247.411 48.6059L243.965 51.9989C243.958 52.0067 243.953 52.0145 243.947 52.0223C243.397 52.561 242.717 52.8834 242.01 52.9924C240.92 53.159 239.767 52.818 238.937 51.9693L235.548 48.5078C234.18 47.1095 234.205 44.8673 235.602 43.4985Z" fill="#FF0101"/>
<path d="M485.617 157.424L480.824 159.979L483.22 153.749" fill="white"/>
<path d="M500.487 149.458C500.487 155.053 495.951 159.587 490.358 159.587C484.764 159.587 480.229 155.051 480.229 149.458C480.229 143.863 484.764 139.327 490.358 139.327C495.951 139.327 500.487 143.863 500.487 149.458Z" fill="white"/>
<path d="M494.629 146.691C493.651 145.735 492.088 145.751 491.132 146.728L490.501 147.372L489.854 146.733C488.88 145.774 487.314 145.786 486.356 146.76C485.399 147.733 485.409 149.299 486.384 150.258L488.79 152.628C488.795 152.633 488.798 152.639 488.804 152.644C489.189 153.021 489.664 153.245 490.157 153.321C490.919 153.438 491.722 153.198 492.303 152.608L494.67 150.191C495.621 149.214 495.606 147.647 494.629 146.691Z" fill="#FF0000"/>
<path d="M593.693 213.121H510.257C508.759 213.121 507.546 211.908 507.546 210.41V187.699C507.546 186.201 508.761 184.988 510.257 184.988H593.693C595.191 184.988 596.404 186.203 596.404 187.699V210.41C596.404 211.907 595.191 213.121 593.693 213.121Z" fill="#7762EF"/>
<path d="M516.48 207.506C516.48 207.506 513.99 225.278 513.988 224.189C513.987 223.101 526.562 209.007 526.562 209.007L516.48 207.506Z" fill="#7762EF"/>
<path d="M583.587 195.519L578.828 196.284L582.329 199.598L581.583 204.359L585.817 202.055L590.117 204.235L589.231 199.496L592.635 196.08L587.853 195.457L585.658 191.166L583.587 195.519Z" fill="#FFF0B0"/>
<path d="M566.716 195.519L561.956 196.284L565.458 199.598L564.712 204.359L568.946 202.055L573.245 204.235L572.361 199.496L575.763 196.08L570.983 195.457L568.787 191.166L566.716 195.519Z" fill="#FFF0B0"/>
<path d="M549.847 195.519L545.086 196.284L548.588 199.598L547.843 204.359L552.076 202.055L556.376 204.235L555.491 199.496L558.893 196.08L554.113 195.457L551.916 191.166L549.847 195.519Z" fill="#FFF0B0"/>
<path d="M531.723 199.594L530.968 204.353L535.044 202.148L535.204 202.061L539.497 204.238L538.627 199.493L542.023 196.085L537.249 195.46L535.044 191.166L532.97 195.518L528.211 196.287L531.723 199.594Z" fill="#FFF0B0"/>
<path d="M516.107 195.519L511.347 196.284L514.847 199.598L514.103 204.359L518.337 202.055L522.636 204.235L521.751 199.496L525.154 196.08L520.373 195.457L518.176 191.166L516.107 195.519Z" fill="#FFF0B0"/>
</svg>
